<svg width="36" height="36" viewBox="0 0 36 36" fill="none" xmlns="http://www.w3.org/2000/svg">
<g id="telegram-logos-id4intND9w 1" clip-path="url(#clip0_97_1297)">
<g id="Group">
<g id="Artboard">
<path id="Oval" d="M18.014 36.0281C27.9629 36.0281 36.0281 27.9629 36.0281 18.014C36.0281 8.06516 27.9629 0 18.014 0C8.06516 0 0 8.06516 0 18.014C0 27.9629 8.06516 36.0281 18.014 36.0281Z" fill="url(#paint0_linear_97_1297)"/>
<path id="Path-3" fill-rule="evenodd" clip-rule="evenodd" d="M8.13723 17.8178C13.3843 15.5169 16.8917 14.0298 18.6594 13.3003C23.654 11.2239 24.6922 10.8591 25.3656 10.8311C25.5059 10.8311 25.8426 10.8591 26.0671 11.0275C26.2354 11.1678 26.2916 11.3642 26.3196 11.5045C26.3477 11.6448 26.3757 11.9534 26.3477 12.206C26.0671 15.0399 24.9167 21.9706 24.2993 25.1413C24.0468 26.4881 23.5417 26.9371 23.0647 26.9932C22.0265 27.0774 21.2128 26.2917 20.2027 25.6463C18.6314 24.6081 17.7335 23.9628 16.1902 22.9526C14.4225 21.7742 15.5729 21.1288 16.5831 20.0906C16.8356 19.81 21.4654 15.6292 21.5495 15.2364C21.5495 15.1802 21.5776 15.0119 21.4654 14.9277C21.3531 14.8435 21.2128 14.8716 21.1006 14.8996C20.9322 14.9277 18.4069 16.6113 13.4965 19.9222C12.767 20.4273 12.1216 20.6518 11.5324 20.6518C10.887 20.6518 9.65243 20.287 8.72647 19.9784C7.6041 19.6136 6.70621 19.4172 6.79038 18.7999C6.8465 18.4912 7.29545 18.1545 8.13723 17.8178Z" fill="white"/>
</g>
</g>
</g>
<defs>
<linearGradient id="paint0_linear_97_1297" x1="0" y1="18.001" x2="36.002" y2="18.001" gradientUnits="userSpaceOnUse">
<stop stop-color="#2AABEE"/>
<stop offset="1" stop-color="#229ED9"/>
</linearGradient>
<clipPath id="clip0_97_1297">
<rect width="36" height="36" fill="white"/>
</clipPath>
</defs>
</svg>
