<svg width="36" height="36" viewBox="0 0 36 36" fill="none" xmlns="http://www.w3.org/2000/svg">
<g id="vkontakte-ru-logos-idYT_zuy5B 1" clip-path="url(#clip0_97_1286)">
<path id="Vector" d="M0 17.28C0 9.132 0 5.064 2.52 2.52C5.076 0 9.144 0 17.28 0H18.72C26.868 0 30.936 0 33.48 2.52C36 5.076 36 9.144 36 17.28V18.72C36 26.868 36 30.936 33.48 33.48C30.924 36 26.856 36 18.72 36H17.28C9.132 36 5.064 36 2.52 33.48C0 30.924 0 26.856 0 18.72V17.28Z" fill="#0077FF"/>
<path id="Vector_2" d="M19.152 25.9318C10.944 25.9318 6.26402 20.3158 6.07202 10.9558H10.2C10.332 17.8198 13.356 20.7238 15.756 21.3238V10.9558H19.632V16.8718C21.996 16.6198 24.492 13.9198 25.332 10.9438H29.196C28.881 12.4844 28.2516 13.9434 27.3472 15.2297C26.4429 16.516 25.283 17.602 23.94 18.4198C25.4387 19.1658 26.7623 20.221 27.8234 21.5158C28.8845 22.8107 29.6591 24.3158 30.096 25.9318H25.836C24.924 23.0878 22.644 20.8798 19.632 20.5798V25.9318H19.164H19.152Z" fill="white"/>
</g>
<defs>
<clipPath id="clip0_97_1286">
<rect width="36" height="36" fill="white"/>
</clipPath>
</defs>
</svg>
