<svg width="36" height="36" viewBox="0 0 36 36" fill="none" xmlns="http://www.w3.org/2000/svg">
<g id="whatsapp-logos-idc8kg0v_f 1" clip-path="url(#clip0_97_1290)">
<g id="Icon_Shape">
<path id="Vector" d="M36 26.8644C36 27.0616 35.9938 27.487 35.9815 27.8199C35.9507 28.6274 35.889 29.6692 35.7904 30.1438C35.6425 30.8589 35.4267 31.5308 35.137 32.0918C34.7979 32.7575 34.3664 33.3493 33.8486 33.861C33.337 34.3726 32.7452 34.8041 32.0795 35.1432C31.5185 35.4329 30.8404 35.6486 30.1192 35.7966C29.6507 35.889 28.6151 35.9568 27.8137 35.9815C27.4808 35.9938 27.0555 36 26.8582 36H9.12945C8.93219 36 8.50685 35.9938 8.17397 35.9815C7.36644 35.9507 6.32466 35.889 5.85 35.7904C5.13493 35.6425 4.46301 35.4267 3.90205 35.137C3.2363 34.7979 2.64452 34.3664 2.13288 33.8486C1.62123 33.337 1.18973 32.7452 0.850685 32.0795C0.560959 31.5185 0.345205 30.8404 0.19726 30.1192C0.104795 29.6507 0.0369863 28.6151 0.0123288 27.8137C0.00616438 27.487 0 27.0616 0 26.8644V9.13562C0 8.93836 0.00616438 8.51301 0.0184932 8.18014C0.0493151 7.3726 0.110959 6.33082 0.209589 5.85616C0.357534 5.1411 0.573288 4.46918 0.863014 3.90822C1.20205 3.24247 1.63356 2.65069 2.14521 2.13904C2.65685 1.6274 3.24863 1.19589 3.91438 0.856849C4.47534 0.567123 5.15342 0.35137 5.87466 0.203425C6.34315 0.110959 7.37877 0.0431507 8.18014 0.0184932C8.51301 0.00616438 8.93836 0 9.13562 0H26.8644C27.0616 0 27.487 0.00616438 27.8199 0.0184932C28.6274 0.0493151 29.6692 0.110959 30.1438 0.209589C30.8589 0.357534 31.5308 0.573288 32.0918 0.863014C32.7575 1.20205 33.3493 1.63356 33.861 2.15137C34.3726 2.66301 34.8041 3.25479 35.1432 3.92055C35.4329 4.48151 35.6486 5.15959 35.7966 5.88082C35.889 6.34932 35.9568 7.38493 35.9815 8.1863C35.9938 8.51918 36 8.94452 36 9.14178V26.8644Z" fill="url(#paint0_linear_97_1290)"/>
</g>
<g id="WA_Logo">
<g id="Group">
<path id="Vector_2" fill-rule="evenodd" clip-rule="evenodd" d="M27.4685 8.6177C25.0459 6.19509 21.8219 4.85742 18.3884 4.85742C11.3117 4.85742 5.5603 10.615 5.55414 17.6855C5.55414 19.9478 6.14592 22.1547 7.26783 24.0965L5.44934 30.7478L12.2548 28.9663C14.1288 29.9896 16.237 30.5259 18.3884 30.5259H18.3945C25.4651 30.5259 31.2226 24.7684 31.2288 17.6978C31.2288 14.2643 29.8911 11.0403 27.4685 8.6177ZM18.3945 28.3561C16.4774 28.3561 14.5973 27.8382 12.9637 26.8704L12.5754 26.6424L8.5377 27.7026L9.61646 23.7698L9.36372 23.3691C8.29729 21.6739 7.73016 19.7074 7.73016 17.6917C7.73016 11.8108 12.5199 7.02728 18.4007 7.02728C21.2487 7.02728 23.9302 8.13687 25.9398 10.1526C27.9555 12.1684 29.0651 14.8499 29.0589 17.6978C29.0528 23.5725 24.2692 28.3561 18.3945 28.3561ZM24.2445 20.3732C23.924 20.2129 22.3459 19.4362 22.0562 19.3314C21.7603 19.2266 21.5507 19.1711 21.335 19.4917C21.1192 19.8122 20.5089 20.5334 20.3178 20.7492C20.1329 20.965 19.9418 20.9896 19.6213 20.8293C19.3007 20.6691 18.2651 20.33 17.0445 19.2389C16.0891 18.3882 15.448 17.3403 15.263 17.0198C15.0781 16.6992 15.2445 16.5266 15.4048 16.3663C15.5466 16.2245 15.7254 15.9903 15.8856 15.8054C16.0459 15.6204 16.1014 15.4848 16.2062 15.2691C16.311 15.0533 16.2617 14.8684 16.1815 14.7081C16.1014 14.5478 15.4603 12.9698 15.1952 12.3287C14.9363 11.7061 14.6713 11.7862 14.474 11.78C14.2891 11.7677 14.0733 11.7677 13.8576 11.7677C13.6418 11.7677 13.2966 11.8478 13.0007 12.1684C12.7048 12.4889 11.8788 13.2656 11.8788 14.8437C11.8788 16.4218 13.0254 17.9444 13.1856 18.1602C13.3459 18.3759 15.448 21.6122 18.6658 22.9992C19.4302 23.3321 20.0281 23.5293 20.4966 23.6773C21.2671 23.9239 21.9637 23.8869 22.5185 23.8067C23.135 23.7143 24.4171 23.03 24.6822 22.2841C24.9473 21.5382 24.9473 20.891 24.8671 20.7615C24.7747 20.6136 24.5651 20.5334 24.2445 20.3732Z" fill="white"/>
</g>
</g>
</g>
<defs>
<linearGradient id="paint0_linear_97_1290" x1="18.0014" y1="36.0028" x2="18.0014" y2="0" gradientUnits="userSpaceOnUse">
<stop stop-color="#25CF43"/>
<stop offset="1" stop-color="#61FD7D"/>
</linearGradient>
<clipPath id="clip0_97_1290">
<rect width="36" height="36" fill="white"/>
</clipPath>
</defs>
</svg>
